<?xml version="1.0" encoding="UTF-8"?>
<!-- Generator: visioncortex VTracer 0.6.4 -->
<svg version="1.1" xmlns="http://www.w3.org/2000/svg" width="1024" height="1024">
<defs>
  <linearGradient id="swanGradient" x1="0" y1="0" x2="1024" y2="1024" gradientUnits="userSpaceOnUse">
    <stop offset="0%" stop-color="#50f0d0"/>
    <stop offset="55%" stop-color="#f2c55e"/>
    <stop offset="100%" stop-color="#ffffff"/>
  </linearGradient>
</defs>
<path d="M 0 0 C 1.0789453124999682 0.6896484374999972 2.15789062500005 1.3792968749999943 3.26953125 2.08984375 C 6.212564931811698 4.016407967410885 9.111378642401291 5.992778492540367 12 8 C 12.640019531250005 8.443115234375 13.280039062500009 8.88623046875 13.939453125 9.3427734375 C 27.537227660256804 18.775520647546102 40.59714890003829 28.650303898694744 53.14453125 39.447998046875 C 54.507571747641805 40.588109684178846 55.89405858337659 41.70033954406961 57.29296875 42.796142578125 C 65.32588760880822 49.143315703988435 72.49134438935323 56.21937342587509 79.68994140625 63.484130859375 C 81.75497323797708 65.5675174419174 83.82799396369694 67.64269164773799 85.90234375 69.716796875 C 87.24266116063211 71.06202823569797 88.58252091430779 72.40771577009437 89.921875 73.75390625 C 90.52932556152348 74.36246963500977 91.13677612304684 74.97103302001952 91.76263427734375 75.59803771972656 C 96.02885056361401 79.9108112500511 100.0432238371883 84.40312929824589 104 89 C 104.84562500000004 89.96421874999999 105.69124999999997 90.9284375 106.5625 91.921875 C 114.87899491244809 101.57114153303277 122.45285683887289 111.74357060683221 130 122 C 130.46792968750003 122.6301904296875 130.93585937499995 123.260380859375 131.41796875 123.90966796875 C 144.80609173525727 141.95788760849098 156.2203686679228 161.31092168175257 167 181 C 167.47002441406255 181.848203125 167.940048828125 182.69640625 168.42431640625 183.5703125 C 209.39733162012453 257.7548707304419 227.2729277825215 343.16535437740583 227.1875 427.375 C 227.1865936279296 429.0305792236328 227.1865936279296 429.0305792236328 227.1856689453125 430.7196044921875 C 227.1606816370039 447.56044084565303 226.85064845114482 464.24488568715947 225 481 C 224.87641113281245 482.15596679687496 224.752822265625 483.31193359375004 224.62548828125 484.5029296875 C 216.47619287364353 558.2515836428815 192.27751646912247 629.8139317746966 150 691 C 149.2997973632812 692.01513671875 149.2997973632812 692.01513671875 148.58544921875 693.05078125 C 139.823433127459 705.688493148749 130.40818534985397 717.6746182400057 120 729 C 118.87060071101178 730.287821813688 117.74541500251325 731.5793542151032 116.625 732.875 C 115.41883411067181 734.2519017001463 114.21027481226656 735.626708580367 113 737 C 111.83597656250004 738.3225781250001 111.83597656250004 738.3225781250001 110.6484375 739.671875 C 100.82249958820285 750.6282305476676 90.15699395583817 760.6951543812669 78.6484375 769.875 C 75.86111894223473 772.1114325891215 73.15386209909775 774.4280685618671 70.4375 776.75 C 62.61579283859021 783.2748437978601 54.340353092357645 789.1604493642257 46 795 C 45.36723144531254 795.4434375 44.73446289062497 795.886875 44.08251953125 796.34375 C -14.783456237946439 837.2828692526875 -84.3628827776671 862.9979199167234 -155 874 C -156.18158691406245 874.1854638671875 -157.363173828125 874.370927734375 -158.58056640625 874.56201171875 C -261.00941295465327 890.3531830258621 -365.1216034763932 872.927764411511 -484.43701171875 812.490234375 C -486.76269227980265 811.1379811701357 -489.09887473457445 809.8071411478329 -491.44140625 808.484375 C -514.1900274142192 795.5346677565295 -536.0667674775866 779.9607329357377 -556 763 C -556.54462890625 762.538837890625 -557.0892578125 762.07767578125 -557.650390625 761.6025390625 C -593.2647233256773 731.4265581579017 -593.2647233256773 731.4265581579017 -608.29296875 713.921875 C -609.9200256221711 712.090039802956 -611.6130232941532 710.3887188884038 -613.375 708.6875 C -617.0612583608927 705.0584562921589 -620.2539881590816 701.0988520190409 -623.4921875 697.0703125 C -625.7146381692082 694.349368222745 -627.9890617281352 691.6938934918181 -630.299560546875 689.048583984375 C -637.3057975759493 681.0089920021663 -643.746622767916 672.6346942585432 -650 664 C -650.5385058593749 663.26072265625 -651.07701171875 662.5214453125 -651.6318359375 661.759765625 C -675.8955468861366 628.3033235580533 -696.7151863598267 591.6573598295253 -713.3125 553.8125 C -713.5954391479493 553.1750686645507 -713.8783782958984 552.5376373291016 -714.1698913574219 551.8808898925781 C -717.0976708969652 545.2546363791729 -719.6642824686378 539.2859777752399 -720 532 C -717.2651678968593 534.6070224412161 -715.058647463203 537.1842507483615 -713.00390625 540.3515625 C -712.4519458007812 541.1938842773437 -711.8999853515625 542.0362060546875 -711.331298828125 542.904052734375 C -710.4557434082031 544.2509216308595 -710.4557434082031 544.2509216308595 -709.5625 545.625 C -694.0789403110634 569.1296978141067 -677.0386424980704 591.2630748377825 -658 612 C -657.2364721679687 612.8391796875001 -657.2364721679687 612.8391796875001 -656.45751953125 613.6953125 C -648.3531615691736 622.592359489024 -640.0052553331968 631.0170615189935 -631 639 C -630.1325415039063 639.7765795898438 -630.1325415039063 639.7765795898438 -629.24755859375 640.56884765625 C -563.385284100785 699.421072841248 -477.987205925445 738.2809294171202 -294 771 C -292.78948974609375 771.0971630859375 -291.5789794921875 771.194326171875 -290.331787109375 771.29443359375 C -258.06053502390614 773.6085742325149 -225.1075341558061 773.0409940013028 -193 769 C -191.84229095458988 768.8543460083008 -191.84229095458988 768.8543460083008 -190.66119384765625 768.7057495117188 C -98.33706834781788 756.9272940765778 -3.1184771689734134 728.3954316287675 68 666 C 69.04607421874994 665.1028125 69.04607421874994 665.1028125 70.11328125 664.1875 C 72.09586444383956 662.4799335224901 74.05085649537011 660.7456614904103 76 659 C 76.95132812500003 658.1530859375 77.90265624999995 657.306171875 78.8828125 656.43359375 C 90.94837046525947 645.5716288905445 101.97407979296281 633.772079874767 112 621 C 112.5312548828125 620.330654296875 113.06250976562501 619.66130859375 113.60986328125 618.9716796875 C 120.81609867331713 609.88979428861 127.80575716803742 600.8096580359245 134 591 C 134.78365894204035 589.7811244609638 135.567525289277 588.5623822535131 136.3515625 587.34375 C 177.50440415797573 522.9302565932369 197.2100778541153 449.1470950724938 197.25 373 C 197.25067474365233 371.84282470703124 197.25134948730465 370.6856494140625 197.25204467773438 369.493408203125 C 197.23538018355805 351.4758193968128 196.7075275005136 333.842449118472 194 316 C 193.82307617187496 314.827275390625 193.64615234375003 313.65455078125 193.4638671875 312.4462890625 C 187.63026879718586 275.0367021484476 176.62685853626294 238.49610737724197 161 204 C 160.57396484375 203.05447265625003 160.14792968749998 202.1089453125 159.708984375 201.134765625 C 137.08567811312605 151.3634918488773 105.33272340980079 106.37292808489639 66.8125 67.6875 C 66.06411865234372 66.93444580078125 65.31573730468745 66.1813916015625 64.544677734375 65.405517578125 C 59.858289731026844 60.732573918601986 55.030752713217 56.29842372215768 50 52 C 48.99075842645311 51.12254187457677 47.98163393780101 50.24494905142868 46.97265625 49.3671875 C 26.543452809190967 31.872111264783655 4.462276898383834 16.18455383227763 -19 3 C -20.36318359374991 2.2313964843750114 -20.36318359374991 2.2313964843750114 -21.75390625 1.447265625 C -68.66282311692214 -24.822926004815287 -119.41980610525718 -42.19628641176294 -173 -48 C -173.898798828125 -48.1029638671875 -174.79759765625 -48.205927734374995 -175.7236328125 -48.31201171875 C -262.3288319077142 -57.92637352640882 -352.94341133212 -36.6059336408031 -426 11 C -427.2715795898438 11.825644531249992 -427.2715795898438 11.825644531249992 -428.56884765625 12.66796875 C -439.32109166096404 19.703826105328716 -449.4387651713231 27.313850287763216 -459.28076171875 35.56884765625 C -461.67721215771394 37.563734403368244 -464.12389310876733 39.49451571700018 -466.5625 41.4375 C -473.6882831012577 47.27935821814822 -480.35293828387495 53.625227558993316 -487 60 C -487.55929199218747 60.53592773437501 -488.118583984375 61.07185546874999 -488.69482421875 61.6240234375 C -494.78506957049444 67.49498310184424 -500.4726452712205 73.54328452494929 -505.73828125 80.1796875 C -507.73155458668555 82.66525459686872 -509.7879770931239 85.07838853978572 -511.880126953125 87.480712890625 C -551.8213173745967 133.60065100160614 -582.7383349241275 196.05459629874252 -578.703125 258.2890625 C -575.6641916359524 296.47915058485887 -560.6018274793682 329.44810725351147 -534 357 C -533.13890625 357.9242578125 -532.2778125 358.848515625 -531.390625 359.80078125 C -508.64856197661203 383.58574953037765 -476.4488024333709 398.0050394128328 -446 409 C -445.1319775390625 409.3185595703126 -444.263955078125 409.6371191406249 -443.36962890625 409.96533203125 C -426.8717745848103 415.96032698185763 -409.93169317596164 420.36757876187403 -393.0000305175781 424.93580627441406 C -291.6019495509883 452.304025094695 -291.6019495509883 452.304025094695 -250.82470703125 474.03466796875 C -248.87193267095972 475.0677519693638 -246.90442306332818 476.06823016029693 -244.93359375 477.06640625 C -224.17619408464225 487.6767038474733 -205.57298868099565 500.7369671101309 -188 516 C -187.18144531250005 516.7051171875 -186.36289062499998 517.410234375 -185.51953125 518.13671875 C -173.3539465886197 528.835097221063 -161.86030539360854 540.2323772059024 -152.25146484375 553.2998046875 C -151.00267559129247 554.9963650375028 -149.73112896650628 556.6739597485157 -148.45703125 558.3515625 C -129.10644509382018 584.2133594033268 -118.4241810067274 614.1471971569274 -110 645 C -113.6342834369434 617.3921977509383 -122.10020701833548 591.129229354091 -134 566 C -134.39139160156253 565.16275390625 -134.78278320312495 564.3255078125 -135.18603515625 563.462890625 C -148.13724224851853 535.9383874860158 -165.17725418377847 511.0956892191051 -184.56005859375 487.73974609375 C -186.57946319885434 485.29988898693864 -188.56870960632853 482.8358043597567 -190.5625 480.375 C -203.03738271097166 465.17832469754353 -216.11819364787436 450.6241834479521 -230.18359375 436.87890625 C -232.31600405624567 434.7525474806291 -234.29225364582658 432.5306147051356 -236.25390625 430.24609375 C -240.430988309942 425.4215611210727 -244.95401134162887 420.97417209188825 -249.5 416.5 C -254.6795664241797 411.40225926972516 -259.75395007144994 406.2995366153866 -264.4609375 400.7578125 C -266.06849889585277 398.92176522047276 -267.75761477762546 397.2078951923129 -269.5 395.5 C -272.4923437538491 392.5539978529583 -275.25324172477644 389.4701699250354 -277.9921875 386.2890625 C -279.94336277393484 384.0645708452805 -281.94124100649054 381.8888516716715 -283.953857421875 379.719970703125 C -288.7068080031502 374.59468796842924 -293.23803197257666 369.35958010565156 -297.62109375 363.91015625 C -299.8507111487222 361.1826275766863 -302.13355251373184 358.51517735083104 -304.443359375 355.85595703125 C -309.8197621235086 349.6616260101483 -314.9333828846377 343.35753711224015 -319.75146484375 336.71240234375 C -321.15015379090255 334.7940597009404 -322.5691970433973 332.8915815119619 -323.98828125 330.98828125 C -346.40505563920135 300.71236139091314 -364.39625004475124 267.85028671019364 -373 231 C -373.1793408203125 230.26120605468748 -373.358681640625 229.522412109375 -373.54345703125 228.76123046875 C -384.16088148344534 183.22333949652392 -371.4435712703406 133.3978764429346 -348 94 C -322.5011152222552 53.679401742690544 -283.0489193320644 20.38175865937012 -235.9296875 9.2763671875 C -190.81881221714264 -0.6690196961609871 -144.15747852319976 2.4718552875642956 -104 27 C -95.71514975645277 32.524688126589865 -88.22569795940683 39.17438263230531 -81 46 C -79.87851562500009 47.04220703125 -79.87851562500009 47.04220703125 -78.734375 48.10546875 C -68.36088841328149 58.061839617322505 -60.71960930651869 69.39018923023576 -54 82 C -53.40445312500003 83.0634765625 -52.80890624999995 84.126953125 -52.1953125 85.22265625 C -41.188132511241406 105.74493182904101 -37.31229300966845 127.89317676038252 -36.5625 150.9375 C -35.23638257735752 189.2892249478855 -20.16637335627513 229.6768594331897 4.78515625 259.10546875 C 5.186054687500018 259.7306640625 5.586953125000036 260.355859375 6 261 C 5.669999999999959 261.99 5.340000000000032 262.98 5 264 C -5.064827256542685 258.0662827090447 -15.050105491677755 252.0466174466241 -24.8125 245.625 C -32.935011351055664 240.28494063425404 -41.18376305491722 235.18751639570877 -49.503173828125 230.16064453125 C -55.54544907275806 226.50594844391924 -61.542528938576766 222.79123304503923 -67.5 219 C -77.42318940959069 212.68967890992468 -87.47482737273197 206.59541027176272 -97.52978515625 200.498046875 C -102.70411608403367 197.36010513029936 -107.86842785930696 194.20756477152588 -113 191 C -113.80791992187505 190.495009765625 -114.61583984375 189.99001953125003 -115.4482421875 189.4697265625 C -121.14973609984338 185.89635551196807 -126.82574893262631 182.2861444549527 -132.47509765625 178.630859375 C -133.99131099272222 177.65152219770027 -135.51079672764047 176.6771852855286 -137.03662109375 175.712890625 C -146.4923108507295 169.7104259991545 -154.02140370749976 162.29710653544998 -161.72314453125 154.21826171875 C -172.86769779744122 142.6415221816825 -186.60422249814803 133.23761256286772 -203.125 132.625 C -216.4594988262321 132.90025341613782 -226.93737707405126 137.82702359083333 -236.25 147.28515625 C -249.5024355841315 162.72123178833505 -252.4819641751435 181.35484928418236 -251 201 C -246.8430485422466 238.7862216777811 -218.1298129610426 274.1104727293507 -189.75 297.4375 C -187.83439646719341 298.95967221232934 -185.9176467414485 300.4804026474422 -184 302 C -182.85505053421275 302.9445331215422 -181.71190863156232 303.8912604013698 -180.5703125 304.83984375 C -171.49440481243516 312.32929250665535 -162.0071528267281 318.82185826921307 -152 325 C -151.0808178710938 325.573310546875 -151.0808178710938 325.573310546875 -150.14306640625 326.158203125 C -135.1646056492425 335.4781342626936 -119.5205979087309 343.68141675452296 -103.875 351.8125 C -55.60305321561111 376.903799547754 -5.33241329113207 403.53227446320477 32.984375 442.984375 C 34.955163711171735 444.95516371117174 36.99929553355071 446.7613305665965 39.125 448.5625 C 43.1771219886225 452.05735570335025 46.56164485780823 455.910960119744 50 460 C 50.81210937499998 460.92425781249995 51.624218749999955 461.848515625 52.4609375 462.80078125 C 64.04256673245084 476.05050293343277 73.92624842157181 490.3595823201009 82 506 C 82.31807617187496 506.61552734375005 82.63615234375004 507.2310546875 82.9638671875 507.865234375 C 100.22297539411318 541.8063437217565 105.91156792768447 582.4912816691126 94.179931640625 619.098876953125 C 78.07037065090651 665.8916537824156 36.2039976206795 691.9608515211877 -6 713 C -6.75732421875 713.379951171875 -7.5146484375 713.75990234375 -8.294921875 714.1513671875 C -58.12872085270101 738.9767445478332 -114.98993705643989 753.4041404410098 -170 760 C -171.213974609375 760.1456640625 -172.42794921874997 760.291328125 -173.6787109375 760.44140625 C -261.94642198024326 770.6447032307285 -349.6004817162172 758.099208099286 -507 697 C -508.097314453125 696.449248046875 -509.19462890625 695.89849609375 -510.3251953125 695.3310546875 C -545.3054442031787 677.691631045188 -578.1023037519753 656.3245892599275 -608 631 C -608.6292236328125 630.469873046875 -609.258447265625 629.93974609375 -609.90673828125 629.3935546875 C -621.4762377204272 619.637619395146 -632.5875845335543 609.4916569892423 -643.3125 598.8125 C -644.065634765625 598.0640380859375 -644.8187695312499 597.315576171875 -645.5947265625 596.54443359375 C -650.213891 591.808955 -654.651459 586.984133 -659 582 C -659.796640625 581.084765625 -660.59328125 580.16953125 -661.4140625 579.2265625 C -715.8421352714319 515.1822224544635 -743.8241096312902 430.54583281872215 -737.5 346.62890625 C -735.039881420397 318.66437892878986 -729.9839665418798 289.9718004603076 -719 264 C -718.01 264.33 -717.02 264.66 -716 265 C -716.1407495117187 266.2073681640625 -716.2814990234375 267.414736328125 -716.426513671875 268.65869140625 C -717.7932024764733 280.92735227129737 -718.365358102444 293.03487773846393 -718.3125 305.375 C -718.3097657775879 306.7134698486328 -718.3097657775879 306.7134698486328 -718.3069763183594 308.0789794921875 C -718.2606677915828 321.58538173184877 -717.7548455217826 334.73642668292973 -715 348 C -714.7425903320312 349.29526611328123 -714.7425903320312 349.29526611328123 -714.47998046875 350.61669921875 C -708.6105408178894 379.5337866139192 -696.5026236505263 407.2291049778446 -679 431 C -678.5480224609375 431.61875 -678.096044921875 432.23749999999995 -677.63037109375 432.875 C -662.6909221179964 453.1215259576479 -644.4722772929067 470.4602804817582 -624 485 C -623.0409374999999 485.683203125 -622.081875 486.36640624999995 -621.09375 487.0703125 C -618.1068942266754 489.1216301144385 -615.0724016918509 491.08066894576143 -612 493 C -611.2773193359375 493.4542333984375 -610.554638671875 493.908466796875 -609.81005859375 494.37646484375 C -585.2465877490956 509.68470891437585 -559.3196762597221 521.5345739486285 -532 531 C -530.1954736328125 531.625517578125 -530.1954736328125 531.625517578125 -528.3544921875 532.263671875 C -488.1339316736337 545.9662385980339 -446.0954989895924 553.8246949237476 -404.59808349609375 562.6155700683594 C -358.5379015155275 572.3735432346898 -358.5379015155275 572.3735432346898 -336.5 578.1875 C -335.61911712646486 578.41888671875 -334.7382342529297 578.6502734375 -333.8306579589844 578.888671875 C -305.05542434448216 586.4734245625393 -276.9472140753643 595.8083978944866 -249 606 C -305.7409831976914 581.349365981314 -365.3930946055479 567.4947121180548 -425.5411071777344 553.8723754882813 C -499.38249680912656 537.1343474482055 -573.0743761279779 513.5841002825845 -629.390625 460.45703125 C -631.8138949553859 458.1752396303327 -634.2944010391993 455.9883741020341 -636.8125 453.8125 C -640.2337297590332 450.78437383985045 -643.2595091663095 447.5959489931606 -646.203125 444.10546875 C -648.1549341085572 441.8184576423645 -650.1998803286604 439.63665319354686 -652.25 437.4375 C -689.8734094605938 395.54883092204614 -709.7922802144662 340.0560370011398 -707 284 C -706.436042651534 276.2598369937411 -705.3414010698193 268.6401539194053 -704 261 C -703.8496630859374 260.1116748046875 -703.699326171875 259.223349609375 -703.54443359375 258.30810546875 C -697.2071256910514 222.0939773394141 -682.2718097317024 187.10124511577317 -663.57763671875 155.658203125 C -662.0227907860498 153.03840081685382 -660.4955712956394 150.40408894499967 -658.97265625 147.765625 C -646.4611430815503 126.27427251454861 -631.1930984269125 106.81556562498162 -615 88 C -614.3864062499999 87.2845703125 -613.7728125 86.56914062499999 -613.140625 85.83203125 C -611.4437592995266 83.87255538159619 -609.7264408638343 81.93346589247409 -608 80 C -607.2845703125 79.19175781249999 -606.569140625 78.383515625 -605.83203125 77.55078125 C -599.6939714568168 70.72754268920568 -593.292142106141 64.18671806416566 -586.8125 57.6875 C -585.9692114257813 56.83961914062499 -585.1259228515626 55.99173828124998 -584.257080078125 55.1181640625 C -579.3312914852185 50.204461514820935 -574.2827585866952 45.52501700692582 -569 41 C -567.8433064885028 39.97853579256093 -566.6883162165411 38.95513915570393 -565.53515625 37.9296875 C -552.0584454408122 26.03711172372408 -537.7593690562234 15.246416199020643 -523 5 C -522.4316845703125 4.602485351562507 -521.863369140625 4.204970703124999 -521.27783203125 3.79541015625 C -510.2713181685902 -3.868133399006254 -498.7325537249793 -10.516798063273995 -487 -17 C -486.21109375000003 -17.438442382812497 -485.4221875 -17.876884765624993 -484.609375 -18.32861328125 C -432.2477132275224 -47.258876662769836 -373.2368523597503 -63.42098671301355 -314 -70 C -312.951669921875 -70.1171435546875 -311.90333984375 -70.234287109375 -310.8232421875 -70.35498046875 C -220.36350268199908 -79.90618923674532 -124.93472576611828 -63.667214508632 0 0 Z M -245 608 C -243.01999999999998 608.99 -243.01999999999998 608.99 -241 610 C -241.32999999999993 609.34 -241.66000000000008 608.68 -242 608 C -242.99 608 -243.98000000000002 608 -245 608 Z" fill="url(#swanGradient)" transform="translate(778,113)"/>
</svg>
